<?xml version="1.0" encoding="UTF-8"?>
<svg id="Layer_2" data-name="Layer 2" xmlns="http://www.w3.org/2000/svg" viewBox="0 0 642.71 547.55">
  <defs>
    <style>
      .cls-1 {
        fill: #E9EFF2;
      }

      .cls-1, .cls-2 {
        stroke-miterlimit: 10;
      }

      .cls-1, .cls-2, .cls-3 {
        stroke: #204C73;
        stroke-width: 4px;
      }

      .cls-2, .cls-3 {
        fill: none;
      }

      .cls-3 {
        stroke-linejoin: round;
      }
    </style>
  </defs>
  <g id="pc">
    <g id="chasis">
      <path class="cls-1" d="m208.55,521.05l9.14,17.19s38.53,7.81,80.7,7.81,80.77-8.14,80.77-8.14l7.21-16.49"/>
      <path class="cls-1" d="m235.9,449.64l-27.35,71.41s37.85,9.37,89.85,9.37,87.99-9,87.99-9l-27.94-71.57"/>
      <path class="cls-1" d="m312.15,452.3l-.66,31.08s4.91.17-13.09.17-13.09-.17-13.09-.17l-.74-31.21"/>
      <path class="cls-1" d="m95.94,169.13s91.74-29.33,202.46-29.33,202.46,29.33,202.46,29.33c0,0,16.29,59.7,16.29,126.92s-17.03,127.12-17.03,127.12c0,0-82.27,29.13-201.72,29.13s-202.46-29.33-202.46-29.33c0,0-17.04-55.19-17.04-126.92s17.04-126.92,17.04-126.92Z"/>
      <path class="cls-1" d="m121.35,402.81s-10.45-45.54-10.45-106.76,10.45-106.76,10.45-106.76c0,0,87.38-18.24,175.38-18.24s178.71,18.24,178.71,18.24c0,0,10.45,47.09,10.45,106.76s-10.46,106.76-10.46,106.76c0,0-54.95,18.24-177.04,18.24s-177.05-18.24-177.05-18.24Z"/>
    </g>
    <g id="nav">
      <path class="cls-2" d="m480.25,216.69s-102.11-14.39-181.85-14.39-181.85,14.39-181.85,14.39"/>
      <path class="cls-2" d="m438.44,199.13c.01.1.02.19.04.29.48,3.77,3.47,6.73,7.25,7.17.39.05.8.09,1.23.14,5.47.64,10.03-4.13,9.13-9.56-.01-.08-.03-.17-.04-.25-.58-3.52-3.35-6.27-6.87-6.83-.4-.06-.81-.13-1.23-.2-5.45-.87-10.21,3.75-9.51,9.23Z"/>
      <path class="cls-2" d="m425.38,192.6c0,.07.02.15.03.22.73,5.36-3.74,9.99-9.12,9.45-.16-.02-.32-.03-.48-.05-3.95-.39-7.08-3.51-7.49-7.46,0-.08-.02-.15-.02-.23-.55-5.33,3.99-9.8,9.31-9.16.16.02.32.04.48.06,3.78.45,6.78,3.4,7.29,7.17Z"/>
      <path class="cls-2" d="m395.32,190.13c0,.07.02.15.03.22.73,5.36-3.74,9.99-9.12,9.45-.16-.02-.32-.03-.48-.05-3.95-.39-7.08-3.51-7.49-7.46,0-.08-.02-.15-.02-.23-.55-5.33,3.99-9.8,9.31-9.16.16.02.32.04.48.06,3.78.45,6.78,3.4,7.29,7.17Z"/>
      <path class="cls-2" d="m135.7,191.66s-1.58,9.15-2.68,17.12c0,0,21.7-3.48,45.74-5.91s52.78-4.73,60.11-5.14,50.03-1.85,59.53-1.8,52.03,1.33,59.53,1.8c0,0-.6-10.42-1.19-18.88,0,0-21-2.09-58.33-2.03s-48.37,1.27-58.33,2.03-46.98,4.3-58.85,5.91-45.51,6.89-45.51,6.89Z"/>
    </g>
    <g id="screen">
      <path class="cls-2" d="m420.1,223.52s.52,4.7,1.17,14.59c0,0-43.21-4.56-122.87-4.56s-122.87,4.56-122.87,4.56c0,0,.6-8.37,1.17-14.59,0,0,63.37-5.6,121.7-5.6s121.7,5.6,121.7,5.6Z"/>
      <path class="cls-2" d="m175.52,267.18c-2.08.07-4.17.15-6.24.22-15.13.54-27.12,12.94-27.13,28.08,0,.19,0,.38,0,.57s0,.37,0,.56c.01,15.13,12,27.53,27.12,28.08,2.06.07,4.15.15,6.23.22,15.9.57,29.13-12.14,29.15-28.05,0-.28,0-.55,0-.81,0-.2,0-.42,0-.63.06-15.97-13.17-28.8-29.13-28.24Z"/>
      <path class="cls-2" d="m221.1,250.57s-.43,14.19-.46,15.16c0,0,55.97-.94,78.2-.94s46.2.35,46.2.35c0,0-.16-10.25-.28-15.46,0,0-22.14-.52-46.36-.52s-77.3,1.4-77.3,1.4Z"/>
      <path class="cls-2" d="m220.27,280.9v15.15s45.74,0,63.86,0,76.63,0,76.63,0c0,0,.29-9.55-.09-15.15,0,0-54.81-.48-76.54-.48s-63.86.48-63.86.48Z"/>
      <path class="cls-2" d="m375.69,250.57s.83,31.14.83,45.47-.58,38.84-.83,45.47c0,0,67.31-2.68,77.56-3.91"/>
      <path class="cls-2" d="m391.18,340.88s.97-20.67.97-44.83h15.63s-.39,31.46-1.1,44.16"/>
      <path class="cls-2" d="m422.19,339.49s3.29-50.43.67-72.35l15.58.59s1.63,57.82-.54,70.82"/>
      <path class="cls-2" d="m220.27,311.2s.31,12.62.37,15.16l62.13.94v-15.63s-62.5-.48-62.5-.48Z"/>
      <path class="cls-2" d="m221.1,341.52s62.41,1.4,77.3,1.4,61.82-.91,61.82-.91l-.51,15.34s-36.43,1.19-61.31,1.19-76.67-1.84-76.67-1.84l-.63-15.19Z"/>
      <path class="cls-2" d="m268.09,373.79s44.09.46,60.61.02l-.4,19.98s-17.79.44-29.91.44-29.91-.44-29.91-.44l-.4-19.99Z"/>
    </g>
  </g>
  <g id="mail-tab">
    <path class="cls-1" d="m235.82,274.78s-66.4.33-140.45,2.63-93.78,3.02-93.78,3.02c0,0,4.29-70.92,32.04-135.48s37.2-76.45,37.2-76.45c0,0,46.4-24.11,75.81-36.94S242.46,1.29,259.43,1.5c0,0-8.33,56.97-12.02,94.12s-13.09,160.18-11.59,179.15Z"/>
    <path class="cls-2" d="m78.9,75.88l-8.5,16.79s44.24-21.24,61.2-27.6l7.22-16.53s-49.95,21.73-59.91,27.34Z"/>
    <path class="cls-2" d="m178.53,34.37s-21.17,62.55-25.44,78.95c0,0,46.39-12.89,81.37-16.2l12.14-78.47s-44.26,7.65-68.07,15.72Z"/>
    <path class="cls-2" d="m63.03,108.2l-6.56,14.79s41.44-18.2,48.11-20.78l6.29-15.52s-42.1,18.66-47.84,21.5Z"/>
    <path class="cls-2" d="m232.65,36.22s-35.15,7.16-47.35,10.74l-14.02,47.37s39.73-9.07,52.66-10.95l8.7-47.16Z"/>
    <polyline class="cls-2" points="232.65 36.22 201.96 72.42 185.3 46.96"/>
    <path class="cls-2" d="m50.62,137.13l-5.2,13.53s54.79-21.95,78.64-28.94l4.84-15.01s-56.57,20.35-78.28,30.42Z"/>
    <path class="cls-2" d="m40.81,163.66l-4.09,12.53s25.87-9.18,32.34-11.29l4.21-13.43s-27.81,10.34-32.46,12.2Z"/>
    <path class="cls-2" d="m33.11,188.3s44.86-14.47,62.83-19.16l-3.3,13.5s-53.87,14.66-62.71,17.41l3.18-11.75Z"/>
    <path class="cls-2" d="m27.15,211.47s63.59-16.75,78.82-19.09l-2.51,13.42s-31.89,6.09-47,9.49-31.71,7.33-31.71,7.33l2.4-11.15Z"/>
    <path class="cls-2" d="m22.66,233.55s57.07-11.23,78.31-14.46l-1.5,13.03s-61.67,9.13-78.47,12.14l1.66-10.71Z"/>
    <path class="cls-2" d="m19.61,254.81s34.04-4.63,47.11-6.17l-1.18,11.96s-40.01,3.89-47.01,4.64l1.08-10.42Z"/>
    <path class="cls-2" d="m163.54,124.89s36.09-7.96,55.46-10.44l-2.21,15.43s-39.02,7.27-56.65,10l3.4-14.99Z"/>
    <path class="cls-2" d="m142.15,158.17l-2.89,14.04s60.87-11.03,88.04-13.21l1.57-15.4s-56.18,5.96-86.72,14.57Z"/>
    <path class="cls-2" d="m225.87,174.35s-67.35,7.93-89.27,12.09l-2.34,14.07s72.24-9.59,90.34-10.85l1.27-15.31Z"/>
    <path class="cls-2" d="m147.59,212.4s-2.36,20.3-2.99,28.14l61.74-4.1,2.07-30.38s-43.69,4.06-60.82,6.34Z"/>
  </g>
  <g id="dev-tab">
    <path class="cls-1" d="m329.65,256.99s185.58,1.38,311.49,19.39c0,0-2.57-70.8-48.31-155.77,0,0-49.37-33.72-106.1-58.93s-86.11-37.85-167.84-46.26c0,0,10.48,164.31,10.76,241.57Z"/>
    <path class="cls-2" d="m344.57,54.89c.52,4.15,1.05,8.41,1.53,12.3.93,7.56,6.82,13.55,14.37,14.62.46.07.93.13,1.41.2,11.58,1.64,21.27-8.73,18.85-20.18-.91-4.28-1.83-8.62-2.69-12.57-1.43-6.56-6.6-11.66-13.19-12.94-.13-.02-.25-.05-.38-.07-11.24-2.18-21.32,7.29-19.9,18.65Z"/>
    <path class="cls-2" d="m391.34,56.72l3.82,15.77,26.01,6.26-4.67-15.79s-24.31-6.05-25.16-6.24Z"/>
    <path class="cls-2" d="m429.51,66.57l5.12,15.93s23.69,7.37,27.84,8.8l-5.63-15.67-27.32-9.06Z"/>
    <path class="cls-2" d="m471.13,80.88l6.05,15.64s27.14,10.56,30.65,12.04l-6.55-15.39-30.15-12.29Z"/>
    <path class="cls-2" d="m362.78,97.18s50.34,3.52,140.37,34.81c0,0,15.26,42.48,18.82,67.3,0,0-57.95-14.97-151.03-24.94,0,0-5.66-55.04-8.15-77.17Z"/>
    <path class="cls-2" d="m493.71,205.87s-47.05-9.61-91.69-13.44l1.49,14.94s67.65,8.22,92.04,11.99l-1.83-13.49Z"/>
    <path class="cls-2" d="m374.28,220.32l.77,14.79s123.46,7.91,155.02,13.53l-1.53-12.2s-66.05-10.62-154.27-16.12Z"/>
    <path class="cls-2" d="m510.18,85.11l7.22,15.63s53.98,26.71,69.96,36.17l-6.81-14.1s-41.97-24.42-70.38-37.7Z"/>
    <polygon class="cls-2" points="523.77 115.42 529.65 129.93 563.16 144.94 557.44 131.28 523.77 115.42"/>
    <path class="cls-2" d="m534.9,143.88l4.69,13.45s44,17.69,50.08,20.37l-4.25-11.86-50.52-21.96Z"/>
    <polygon class="cls-2" points="543.78 170.34 547.13 182.84 580.05 193.82 576.62 182.42 543.78 170.34"/>
    <path class="cls-2" d="m550.94,195.94s36.92,9.98,66.35,20.75l1.11,9.17s-48.88-14.63-64.77-18.69l-2.68-11.23Z"/>
    <path class="cls-2" d="m556.1,218.85l2.12,11.45s39.4,8.29,47.77,10.23l-1.82-9.74s-43.5-10.89-48.07-11.94Z"/>
    <polygon class="cls-2" points="560 241.55 561.45 252.65 592.93 256.99 591.63 247.09 560 241.55"/>
    <polyline class="cls-2" points="419.1 121.77 381.11 138.05 427.71 166.74"/>
    <polyline class="cls-2" points="447.63 128.36 497.98 160.79 457.54 172.21"/>
    <line class="cls-2" x1="423.4" y1="121.77" x2="450.73" y2="171.05"/>
  </g>
  <g id="responsive-tab">
    <path class="cls-1" d="m159.07,338.32s-128.75-9.33-140.49-11.02c0,0,5.99,85.06,45.44,158.76,0,0,90.21,39.4,129.03,46.5,0,0-33.05-130.32-33.98-194.24Z"/>
    <path class="cls-2" d="m54.66,341.93c.18.02.36.05.53.07,6.69.86,11.97,6.09,12.91,12.77.57,4.08,1.35,9.21,2.41,15.34,1.83,10.65-7.86,19.67-18.34,17.07h0c-5.57-1.39-9.85-5.84-11.03-11.46-.94-4.5-2.08-10.27-3.13-16.49-1.67-9.88,6.71-18.57,16.65-17.3Z"/>
    <path class="cls-2" d="m46.04,396.88s44.71,12.92,108.2,25.88l13.01,59.63s-41.09-8.88-105.36-34.17l-15.85-51.34Z"/>
    <path class="cls-2" d="m146.95,372.39s-10.87-.97-30.94-3.59"/>
    <path class="cls-2" d="m147.59,379.69c-10.45-1.37-30.79-4.25-30.79-4.25"/>
    <path class="cls-2" d="m148.63,387.62c-12.02-1.82-30.89-4.87-30.89-4.87"/>
    <polyline class="cls-2" points="95.94 422.97 69.06 427.21 103.09 449.64"/>
    <polyline class="cls-2" points="112.25 427.97 145.53 448.92 120.38 455.9"/>
    <line class="cls-2" x1="101.07" y1="424.34" x2="114.59" y2="454.19"/>
    <path class="cls-2" d="m83.23,468.78s3.92,10.16,5.83,14.8c0,0,24.61,10.56,73.12,26.01l-4.7-15.53s-53.31-15.11-74.25-25.29Z"/>
  </g>
  <g id="CRM">
    <path class="cls-1" d="m406.26,355s-11.4,101.23-14.86,120.54c0,0,127.03-25.62,163.41-45.61,0,0,19.33-61.45,21.64-92.54,0,0-128.66,17.33-170.19,17.6Z"/>
    <path class="cls-2" d="m433.91,381.55l-8.7,58.08s13.81,3.86,29.35-5.33l10.01-56.74s-12.37-5.74-30.67,3.98Z"/>
    <path class="cls-2" d="m464.58,377.57s-10.15,9.82-30.67,3.98"/>
    <path class="cls-2" d="m431.74,396.1c4.22,2.4,25.05.84,30.36-4.44"/>
    <path class="cls-2" d="m459.48,406.46c-4.97,3.25-19.24,6.76-30.11,5.39"/>
    <path class="cls-2" d="m427.34,425.42c4.17,2.52,21.56,1.71,29.75-5.44"/>
    <path class="cls-3" d="m500.12,423.17c15.26-4.25,45.58-10.94,48.91-19.63s-5.97-15.88-11.3-14.54c-3.14.79,3.02-22.76-26.68-18.49-12.18,1.75-15.4,18.3-16.22,25.31-.21,1.78-1.43,3.3-3.15,3.83-2.75.85-6.73,2.59-8.39,5.78-2.67,5.11-3,12.25,2.61,16.94s14.22.8,14.22.8Z"/>
  </g>
</svg>