<?xml version="1.0" encoding="UTF-8"?>
<svg id="Layer_2" data-name="Layer 2" xmlns="http://www.w3.org/2000/svg" viewBox="0 0 435.69 430.97" width="120px">
  <defs>
    <style>
      .cls-1 {
        fill: #96a65d;
      }
    </style>
  </defs>
  <g id="exportables">
    <path class="cls-1" d="m348.11,250.01c-5.44-.1-10.89-.18-16.35-.24v.21c0,3.08.23,6.1.67,9.04,5.31-.17,10.88-.35,16.56-.52-.58-2.73-.88-5.57-.88-8.49Zm-10.19-26.58c-2.17,4.37-3.83,9.08-4.87,14.04l18.61-4.26c2.96-6.61,7.63-12.17,13.38-16-8.7,1.99-17.81,4.08-27.12,6.22Zm0,0c-2.17,4.37-3.83,9.08-4.87,14.04l18.61-4.26c2.96-6.61,7.63-12.17,13.38-16-8.7,1.99-17.81,4.08-27.12,6.22Zm52.96-29.1c-2.34-.35-4.72-.53-7.15-.53-2.22,0-4.41.15-6.55.44,2.35,5.63,4.37,11.39,6.05,17.25.17,0,.33,0,.5,0,1.63,0,3.23.12,4.8.35.38.05.75.11,1.12.18,2.63.48,5.15,1.26,7.55,2.33,12.99,5.74,22.14,19.54,22.14,35.64,0,6.75-1.61,13.09-4.43,18.6-1.42,2.78-3.15,5.35-5.14,7.66-2.43,9.22-5.58,18.24-9.38,26.97,2.52-.93,4.96-2.06,7.29-3.38,16.64-9.35,28.01-28.17,28.01-49.85,0-28.41-19.49-51.89-44.81-55.65Zm-57.83,43.14l18.61-4.26c2.96-6.61,7.63-12.17,13.38-16-8.7,1.99-17.81,4.08-27.12,6.22-2.17,4.37-3.83,9.08-4.87,14.04Zm-1.29,12.3v.21c0,3.08.23,6.1.67,9.04,5.31-.17,10.88-.35,16.56-.52-.58-2.73-.88-5.57-.88-8.49-5.44-.1-10.89-.18-16.35-.24Z"/>
    <path class="cls-1" d="m348.11,250.01c-5.44-.1-10.89-.18-16.35-.24-17.07-.19-34.23-.22-51.35-.23,10.36-2.36,20.37-4.64,29.11-6.68l23.53-5.39c1.04-4.96,2.7-9.67,4.87-14.04-39.39,9.03-82.48,18.9-114.65,26.11l-57.84,12.36,59.31.33c26.45-.23,66.08-1.82,92.89-2.65,4.61-.2,9.58-.38,14.8-.56,5.31-.17,10.88-.35,16.56-.52-.58-2.73-.88-5.57-.88-8.49Zm67.59,4.18c-14.13-3.59-30.48-2.97-45.15-3.65-7.45-.23-14.93-.4-22.44-.53-5.44-.1-10.89-.18-16.35-.24-17.07-.19-34.23-.22-51.35-.23,10.36-2.36,20.37-4.64,29.11-6.68l23.53-5.39,18.61-4.26,41.19-9.44,6.23-1.42c-.57-2.68-1.19-5.36-1.88-8.01-1.73-6.78-3.83-13.46-6.32-20.01-5.23-13.77-12.12-26.91-20.73-38.93-70.27-98.99-218.73-99.62-289.87-1.25-11.68,16.45-20.08,33.65-25.48,51.08-1.41,4.52-2.62,9.06-3.62,13.61,4.43-1.47,9.07-2.39,13.87-2.69,1.1-4.43,2.39-8.76,3.84-12.98,33.69-98.49,155.69-142.14,245.82-83.53,27.89,17.83,49.85,44.31,62.47,74.6,2.35,5.63,4.37,11.39,6.05,17.25.06.21.26.92.41,1.46-5.92,1.35-12.15,2.78-18.6,4.26-8.7,1.99-17.81,4.08-27.12,6.22-39.39,9.03-82.48,18.9-114.65,26.11l-57.84,12.36,59.31.33c26.45-.23,66.08-1.82,92.89-2.65,4.61-.2,9.58-.38,14.8-.56,5.31-.17,10.88-.35,16.56-.52,22.39-.68,46.65-1.39,64.91-2.7-.98,6.9-2.37,13.72-4.13,20.44-2.43,9.22-5.58,18.24-9.38,26.97-15.68,35.93-42.6,66.92-76.92,86.83-3.99,2.33-9.76,5.48-13.76,7.65-20.89,11.06-44.14,17.69-67.71,19.85-60.84,6.25-115.31-20.57-148.47-63.69-2.91-3.79-5.66-7.7-8.23-11.73-4.25,1.35-8.69,2.19-13.28,2.47,2.54,4.26,5.26,8.42,8.15,12.45,34.4,48.08,93.02,79.66,163.01,73.05,33.56-3.17,66.73-14.58,94.03-34.29,32.92-23.69,57.98-57.8,70.47-95.97,3.33-10.17,5.77-20.62,7.23-31.25.02-.11.03-.23.05-.34.81-4.46.99-9.72.74-14.05Zm-67.59-4.18c-5.44-.1-10.89-.18-16.35-.24v.21c0,3.08.23,6.1.67,9.04,5.31-.17,10.88-.35,16.56-.52-.58-2.73-.88-5.57-.88-8.49Zm-15.06-12.54c1.04-4.96,2.7-9.67,4.87-14.04-39.39,9.03-82.48,18.9-114.65,26.11l-57.84,12.36,59.31.33c26.45-.23,66.08-1.82,92.89-2.65,4.61-.2,9.58-.38,14.8-.56-.44-2.94-.67-5.96-.67-9.04v-.21c-17.07-.19-34.23-.22-51.35-.23,10.36-2.36,20.37-4.64,29.11-6.68l23.53-5.39Z"/>
    <path class="cls-1" d="m71.46,203.11c-.86,0-1.72.02-2.57.06-4.84.17-9.55.88-14.09,2.06C23.37,213.34,0,243.9,0,280.36c0,42.67,32,77.25,71.46,77.25,2.95,0,5.86-.19,8.71-.57,4.6-.6,9.07-1.68,13.36-3.19,28.67-10.05,49.4-39.15,49.4-73.49,0-42.66-32-77.25-71.47-77.25Zm13.84,139.01c-4.25,1.35-8.69,2.19-13.28,2.47-1.12.07-2.26.1-3.4.1-32.87,0-59.51-28.8-59.51-64.33,0-28.97,17.71-53.46,42.07-61.52,4.43-1.47,9.07-2.39,13.87-2.69,1.18-.08,2.37-.12,3.57-.12,32.87,0,59.51,28.8,59.51,64.33,0,29.27-18.08,53.97-42.83,61.76Z"/>
    <g id="Ojos">
      <path class="cls-1" d="m277.75,196.17c0,11.35,9.32,20.56,20.82,20.56s20.82-9.2,20.82-20.56-9.32-15.13-20.82-15.13-20.82,3.77-20.82,15.13Z"/>
      <path class="cls-1" d="m158.15,196.54c0,18.15,14.9,32.86,33.28,32.86s33.28-14.71,33.28-32.86-14.9-24.38-33.28-24.38-33.28,6.23-33.28,24.38Z"/>
    </g>
    <g id="cejas">
      <path class="cls-1" d="m219.53,157.16c-5.7-13.43-25.7-25.69-40.46-24.03-1.3.14-2.54.42-3.78.8-16.35,5.8-31.18,18.72-41.49,33.01-2.41,3.38-4.64,6.98-6.31,10.77-.63,1.27-1.14,2.97-1.65,4.28-1.17,3.19-4.73,4.84-7.96,3.69-3.02-1.08-4.67-4.24-3.92-7.25l.66-2.63c.86-3.28,2.22-6.62,3.63-9.69,10.15-21.15,31.17-44.05,54-51.96,22.57-6.62,49.15,5.08,64.24,21.73,2.7,3.03,5.26,6.57,7.32,10.6,3.37,6.45.8,14.38-5.73,17.7-6.99,3.61-15.79.27-18.54-7.02h0Z"/>
      <path class="cls-1" d="m279.76,146.1c3.33-.13,6.77.25,9.96.4,5.71.27,11.41.53,17.12.8,7.17.33,14.35.67,21.52,1,7.48.35,14.97.7,22.45,1.04,6.63.31,13.27.62,19.9.92l13.88.64c1.49.07,2.98.14,4.47.21,7.03.33,11.08,8.13,7.52,14.03-.69,1.14-1.64,2.12-2.76,2.84-1.79,1.15-3.54,1.28-5.64,1.46-9.92.85-19.89,1.04-29.83,1.5-8.75.41-17.5.81-26.25,1.22-8.58.4-17.17.8-25.75,1.2-5.42,0-10.89.51-16.3.76-4.98.23-10.56,1.23-15.42-.22-3.22-.96-6.04-3.15-7.81-5.98-3.68-5.88-2.57-13.68,2.66-18.28,2.93-2.57,6.54-3.39,10.3-3.54Z"/>
    </g>
    <path class="cls-1" d="m195.65,70.99c-.88.29-2.21.1-3.14.09,0,0-2.55-.05-2.55-.05-42.69-1.06-80.55,18.58-105.05,52.82-6.58,9.03-11.46,19.18-14.81,29.8-11.44-8.86-21.09-19.93-27.58-32.79-15.88-30.23-12.47-68.84,11.86-94.06C72.71,6.7,101.07-3.36,128.17,1c2.5.54,5.25.93,7.71,1.57,1.83.55,5.8,1.61,7.51,2.29,2.35.99,4.99,1.8,7.23,2.98,0,0,4.66,2.3,4.66,2.3,2.22,1.33,4.47,2.63,6.62,4.06,1.5,1.12,3.72,2.69,5.19,3.81.61.51,4.15,3.62,4.84,4.22,1.84,1.78,3.56,3.66,5.31,5.51,1.43,1.87,3.41,4.02,4.73,5.96,2.42,3.37,4.56,7.09,6.51,10.75.95,2.21,2.14,4.62,2.97,6.86,0,0,1.59,4.69,1.59,4.69.33.68.46,1.66.67,2.37.31,1.48.95,3.92,1.25,5.39.39,2.3.52,5.17.69,7.22h0Zm-.93-.9c-.77-2.01-1.55-3.42-2.25-5.13-.79-1.97-1.98-4.42-2.83-6.38-3.69-7.16-8.32-14.16-13.85-19.95-25.14-27.02-66.48-33.02-98.33-14.06-37.76,21.98-50.58,76.44-21.09,110.26,4.08,4.75,8.83,8.93,14.04,12.37l-4.09,1.4c5.92-28,22-52.89,47.18-67.65,23.43-14.17,52.75-19.06,79.31-11.77,0,0,1.25.35,1.25.35l.31.09c.1.03.07.05.11.09.04.08.09.24.24.38h0Z"/>
    <path class="cls-1" d="m119.52,21.53c-35.96-1.58-66.43,25.93-68.03,61.44-.93,20.51,7.98,39.2,22.59,51.64,1.9-4.38,4.11-8.6,6.59-12.65-10.01-9.72-15.96-23.44-15.29-38.37,1.26-27.94,25.22-49.58,53.52-48.33,21.65.95,39.57,15.02,46.22,34.09,4.73-.45,9.53-.6,14.41-.42-7.24-26.27-30.99-46.11-60.02-47.39Z"/>
    <path class="cls-1" d="m149.05,72.03c-8.43,2.04-16.5,5.05-24.06,8.92-5.8,2.94-11.29,6.37-16.43,10.25-6.83,5.14-13.03,11.05-18.48,17.6-5.8-6.51-9.14-15.17-8.72-24.52.87-19.23,17.36-34.13,36.84-33.27,13.96.61,25.66,9.16,30.85,21.02Z"/>
  </g>
</svg>