<?xml version="1.0" encoding="UTF-8"?>
<svg id="Layer_2" data-name="Layer 2" xmlns="http://www.w3.org/2000/svg" viewBox="0 0 705.57 232.23" width="250px">
  <defs>
    <style>
      .cls-1 {
        fill: #333;
      }
    </style>
  </defs>
  <g id="exportables">
    <g>
      <path class="cls-1" d="m140.43,129.69h-18.36c0-14.52-1.01-35.51-3.03-62.99-2.02-27.47-3.09-43.95-3.22-49.41h-.98c-6.51,21.16-14.76,44.13-24.76,68.9-9.99,24.77-14.99,39.27-14.99,43.51h-13.18c0-4.56-4.66-19.32-13.96-44.29-9.31-24.97-15.2-41.68-17.68-50.15-2.47-8.46-4.17-14.45-5.08-17.97h-.98c-.2,8.92-1.48,26.92-3.86,54-2.38,27.08-3.56,46.55-3.56,58.4H0c0-.65,2.21-18.57,6.64-53.76C11.07,40.74,13.28,16.28,13.28,2.54h25.68c0,7.16,5.21,25.07,15.62,53.71,10.42,28.65,15.62,46,15.62,52.05h.98c0-6.05,5.86-23.45,17.58-52.2,11.72-28.74,17.58-46.6,17.58-53.56h25.1c0,13.74,1.5,38.09,4.49,73.05,2.99,34.96,4.49,53,4.49,54.1Z"/>
      <path class="cls-1" d="m278.81,129.69h-20.61c0-4.36-4.1-18.07-12.3-41.11h-56.35c-8.07,22.72-12.11,36.43-12.11,41.11h-19.73c0-2.41,8.4-23.23,25.2-62.45,16.8-39.22,25.2-60.79,25.2-64.7h22.66c0,3.84,8.01,25.1,24.02,63.77s24.02,59.8,24.02,63.38Zm-37.4-53.91c-15.3-38.22-22.95-58.53-22.95-60.94h-1.07c0,2.02-7.91,22.33-23.73,60.94h47.75Z"/>
      <path class="cls-1" d="m408.98,64.16c0,21.03-6.15,37.84-18.46,50.44s-26.53,18.9-42.68,18.9-29.09-5.78-40.77-17.33c-11.69-11.56-17.53-27.16-17.53-46.83,0-21.29,6.15-38.17,18.46-50.63,12.3-12.47,26.53-18.7,42.68-18.7s29.08,5.78,40.77,17.33c11.69,11.56,17.53,27.17,17.53,46.83Zm-17.38,2.25c0-16.8-4.41-29.8-13.23-39.01-8.82-9.21-18.99-13.82-30.52-13.82-10.68,0-20.18,4.85-28.52,14.55-8.33,9.7-12.5,22.66-12.5,38.87s4.44,29.9,13.33,39.11c8.89,9.21,19.06,13.82,30.52,13.82,10.68,0,20.17-4.92,28.47-14.75,8.3-9.83,12.45-22.75,12.45-38.77Z"/>
      <path class="cls-1" d="m573.14,129.69h-18.36c0-14.52-1.01-35.51-3.03-62.99-2.02-27.47-3.09-43.95-3.22-49.41h-.98c-6.51,21.16-14.76,44.13-24.76,68.9-9.99,24.77-14.99,39.27-14.99,43.51h-13.18c0-4.56-4.66-19.32-13.96-44.29-9.31-24.97-15.2-41.68-17.68-50.15-2.47-8.46-4.17-14.45-5.08-17.97h-.98c-.2,8.92-1.48,26.92-3.86,54-2.38,27.08-3.56,46.55-3.56,58.4h-16.8c0-.65,2.21-18.57,6.64-53.76,4.43-35.19,6.64-59.65,6.64-73.39h25.68c0,7.16,5.21,25.07,15.62,53.71,10.42,28.65,15.62,46,15.62,52.05h.98c0-6.05,5.86-23.45,17.58-52.2,11.72-28.74,17.58-46.6,17.58-53.56h25.1c0,13.74,1.5,38.09,4.49,73.05s4.49,53,4.49,54.1Z"/>
      <path class="cls-1" d="m705.57,129.69h-21.39c0-.72-3.71-6.38-11.13-16.99-8.59-12.3-16.44-22.46-23.54-30.47-9.63-10.87-16.76-16.31-21.39-16.31h-3.03c0,15.23.33,36.49.98,63.77h-18.36c.98-20.18,1.46-42.45,1.46-66.8,0-22.92-.49-43.03-1.46-60.35h18.36c-.65,17.32-.98,34.9-.98,52.73h2.25c3.58,0,12.52-8.3,26.81-24.9,14.29-16.6,21.44-25.88,21.44-27.83h20.31c0,1.95-6.95,10.01-20.85,24.17-13.9,14.16-24.23,23.68-31.01,28.56v.98c7.49,2.87,19.96,15.79,37.4,38.77,16.08,21.16,24.12,32.71,24.12,34.67Z"/>
    </g>
    <g>
      <path class="cls-1" d="m78.57,229.03c-.7.83-1.27,1.37-1.7,1.6s-.96.35-1.58.35c-1.22,0-2.21-.41-2.95-1.23s-1.11-2.18-1.11-4.08v-5.39c0-1.93.37-3.3,1.11-4.12s1.72-1.23,2.95-1.23c.94,0,1.72.25,2.36.74.64.5,1.13,1.32,1.46,2.48.34,1.16.69,1.95,1.05,2.36.75.81,2.1,1.63,4.02,2.46,1.93.83,4.04,1.25,6.33,1.25,3.57,0,6.5-.83,8.79-2.5,1.46-1.02,2.19-2.27,2.19-3.75,0-.99-.35-1.92-1.05-2.79-.7-.87-1.85-1.59-3.44-2.17-1.04-.39-3.37-.92-6.99-1.6-4.38-.81-7.68-1.78-9.92-2.93-2.24-1.15-4.01-2.76-5.31-4.84-1.3-2.08-1.95-4.34-1.95-6.76,0-3.83,1.6-7.18,4.8-10.06,3.2-2.88,7.37-4.32,12.5-4.32,2.06,0,3.96.23,5.72.68,1.76.46,3.35,1.15,4.79,2.09,1.04-1.02,2.08-1.52,3.12-1.52,1.17,0,2.13.41,2.87,1.23s1.11,2.18,1.11,4.08v6.02c0,1.93-.37,3.3-1.11,4.12s-1.7,1.23-2.87,1.23c-.99,0-1.85-.3-2.58-.9-.57-.44-1-1.33-1.29-2.66-.29-1.33-.65-2.28-1.09-2.85-.76-.99-1.89-1.82-3.4-2.5-1.51-.68-3.26-1.02-5.23-1.02-2.89,0-5.18.67-6.86,2.01-1.68,1.34-2.52,2.74-2.52,4.2,0,.99.34,1.95,1.04,2.87.69.92,1.7,1.65,3.03,2.17.88.37,3.38.95,7.48,1.76,4.1.81,7.25,1.69,9.45,2.66,2.2.96,4.03,2.47,5.49,4.53,1.46,2.06,2.19,4.51,2.19,7.34,0,3.96-1.39,7.12-4.18,9.49-3.7,3.12-8.41,4.69-14.14,4.69-2.21,0-4.37-.27-6.46-.8-2.1-.53-4.13-1.33-6.11-2.4Z"/>
      <path class="cls-1" d="m178.36,207.39c0,7.11-2.26,13.03-6.78,17.75-4.52,4.73-9.75,7.09-15.68,7.09-5.34,0-10.16-1.97-14.45-5.9-5.31-4.87-7.97-11.18-7.97-18.95s2.66-14.09,7.97-18.98c4.3-3.93,9.11-5.9,14.45-5.9,5.94,0,11.17,2.36,15.68,7.09,4.52,4.73,6.78,10.66,6.78,17.79Zm-8.01,0c0-4.87-1.47-8.9-4.41-12.09-2.94-3.19-6.29-4.79-10.04-4.79s-7.06,1.6-10,4.8c-2.94,3.2-4.41,7.23-4.41,12.07s1.47,8.86,4.41,12.05c2.94,3.19,6.28,4.79,10,4.79s7.1-1.59,10.04-4.77c2.94-3.18,4.41-7.2,4.41-12.07Z"/>
      <path class="cls-1" d="m218.15,191.72v31.33h17.27v-7.58c0-1.93.37-3.3,1.11-4.12s1.71-1.23,2.91-1.23,2.13.41,2.87,1.23,1.11,2.19,1.11,4.12v15.59h-37.93c-1.93,0-3.3-.37-4.12-1.11s-1.23-1.71-1.23-2.91.41-2.13,1.23-2.87,2.19-1.11,4.12-1.11h4.65v-31.33h-4.65c-1.93,0-3.3-.37-4.12-1.11s-1.23-1.71-1.23-2.91.41-2.17,1.23-2.91,2.19-1.11,4.12-1.11l17.34.04c1.93,0,3.3.37,4.12,1.09.82.73,1.23,1.69,1.23,2.89s-.41,2.17-1.23,2.91-2.19,1.11-4.12,1.11h-4.69Z"/>
      <path class="cls-1" d="m305.4,191.72v22.7c0,4.95-1.78,9.15-5.33,12.62-3.55,3.46-7.83,5.2-12.83,5.2-2.47,0-4.8-.44-6.97-1.31-2.17-.87-4.13-2.15-5.86-3.85-1.73-1.69-3.08-3.46-4.04-5.29-.96-1.84-1.45-4.29-1.45-7.36v-22.7c-1.69,0-2.94-.38-3.75-1.13-.81-.75-1.21-1.72-1.21-2.89s.4-2.16,1.21-2.89c.81-.73,2.19-1.09,4.14-1.09l10.51-.04c1.93,0,3.3.37,4.12,1.11s1.23,1.71,1.23,2.91-.41,2.17-1.23,2.91-2.19,1.11-4.12,1.11h-2.89v23.4c0,2.4,1,4.51,2.99,6.35s4.39,2.75,7.21,2.75c1.88,0,3.63-.44,5.27-1.33,1.64-.88,2.98-2.17,4.02-3.87.65-1.07.98-2.37.98-3.91v-23.4h-2.89c-1.93,0-3.3-.37-4.12-1.11s-1.23-1.71-1.23-2.91.41-2.17,1.23-2.91,2.19-1.11,4.12-1.11l10.51.04c1.93,0,3.3.37,4.12,1.09.82.73,1.23,1.69,1.23,2.89s-.4,2.14-1.21,2.89c-.81.76-2.06,1.13-3.75,1.13Z"/>
      <path class="cls-1" d="m356.59,191.72v31.33h5.39c1.93,0,3.3.37,4.12,1.11s1.23,1.71,1.23,2.91-.41,2.13-1.23,2.87-2.19,1.11-4.12,1.11h-18.75c-1.93,0-3.3-.37-4.12-1.11s-1.23-1.71-1.23-2.91.41-2.13,1.23-2.87,2.19-1.11,4.12-1.11h5.35v-31.33h-8.67v7.58c0,1.93-.37,3.3-1.11,4.12s-1.71,1.23-2.91,1.23-2.13-.41-2.87-1.23-1.11-2.19-1.11-4.12v-15.62l41.48.04v15.59c0,1.93-.37,3.3-1.11,4.12s-1.71,1.23-2.91,1.23-2.13-.41-2.87-1.23-1.11-2.19-1.11-4.12v-7.58h-8.79Z"/>
      <path class="cls-1" d="m422.32,191.72v31.33h8.09c1.93,0,3.3.37,4.12,1.11s1.23,1.71,1.23,2.91-.41,2.13-1.23,2.87-2.19,1.11-4.12,1.11h-24.18c-1.93,0-3.3-.37-4.12-1.11s-1.23-1.71-1.23-2.91.41-2.13,1.23-2.87,2.19-1.11,4.12-1.11h8.09v-31.33h-8.09c-1.93,0-3.3-.37-4.12-1.11s-1.23-1.71-1.23-2.91.41-2.17,1.23-2.91,2.19-1.11,4.12-1.11l24.18.04c1.93,0,3.3.37,4.12,1.09.82.73,1.23,1.69,1.23,2.89s-.41,2.17-1.23,2.91-2.19,1.11-4.12,1.11h-8.09Z"/>
      <path class="cls-1" d="m506.4,207.39c0,7.11-2.26,13.03-6.78,17.75-4.52,4.73-9.75,7.09-15.68,7.09-5.34,0-10.16-1.97-14.45-5.9-5.31-4.87-7.97-11.18-7.97-18.95s2.66-14.09,7.97-18.98c4.3-3.93,9.11-5.9,14.45-5.9,5.94,0,11.17,2.36,15.68,7.09,4.52,4.73,6.78,10.66,6.78,17.79Zm-8.01,0c0-4.87-1.47-8.9-4.41-12.09-2.94-3.19-6.29-4.79-10.04-4.79s-7.06,1.6-10,4.8c-2.94,3.2-4.41,7.23-4.41,12.07s1.47,8.86,4.41,12.05c2.94,3.19,6.28,4.79,10,4.79s7.1-1.59,10.04-4.77c2.94-3.18,4.41-7.2,4.41-12.07Z"/>
      <path class="cls-1" d="m539.51,198.83v24.22h2.89c1.93,0,3.3.37,4.12,1.11s1.23,1.71,1.23,2.91-.41,2.13-1.23,2.87-2.19,1.11-4.12,1.11h-10.51c-1.93,0-3.3-.37-4.12-1.11s-1.23-1.71-1.23-2.91.4-2.1,1.21-2.85c.81-.75,2.06-1.13,3.75-1.13v-31.33h-1.25c-1.93,0-3.3-.37-4.12-1.11s-1.23-1.71-1.23-2.91.41-2.17,1.23-2.91,2.19-1.11,4.12-1.11l9.26.04,20.47,32.11v-24.1h-2.89c-1.93,0-3.3-.37-4.12-1.11s-1.23-1.71-1.23-2.91.41-2.17,1.23-2.91,2.19-1.11,4.12-1.11l10.51.04c1.93,0,3.3.37,4.12,1.09.82.73,1.23,1.69,1.23,2.89s-.4,2.14-1.21,2.89c-.81.76-2.04,1.13-3.71,1.13v39.34h-7.93l-20.59-32.23Z"/>
      <path class="cls-1" d="m603.44,229.03c-.7.83-1.27,1.37-1.7,1.6s-.96.35-1.58.35c-1.22,0-2.21-.41-2.95-1.23s-1.11-2.18-1.11-4.08v-5.39c0-1.93.37-3.3,1.11-4.12s1.72-1.23,2.95-1.23c.94,0,1.72.25,2.36.74.64.5,1.13,1.32,1.46,2.48.34,1.16.69,1.95,1.05,2.36.75.81,2.1,1.63,4.02,2.46,1.93.83,4.04,1.25,6.33,1.25,3.57,0,6.5-.83,8.79-2.5,1.46-1.02,2.19-2.27,2.19-3.75,0-.99-.35-1.92-1.05-2.79-.7-.87-1.85-1.59-3.44-2.17-1.04-.39-3.37-.92-6.99-1.6-4.38-.81-7.68-1.78-9.92-2.93-2.24-1.15-4.01-2.76-5.31-4.84-1.3-2.08-1.95-4.34-1.95-6.76,0-3.83,1.6-7.18,4.8-10.06,3.2-2.88,7.37-4.32,12.5-4.32,2.06,0,3.96.23,5.72.68,1.76.46,3.35,1.15,4.79,2.09,1.04-1.02,2.08-1.52,3.12-1.52,1.17,0,2.13.41,2.87,1.23s1.11,2.18,1.11,4.08v6.02c0,1.93-.37,3.3-1.11,4.12s-1.7,1.23-2.87,1.23c-.99,0-1.85-.3-2.58-.9-.57-.44-1-1.33-1.29-2.66-.29-1.33-.65-2.28-1.09-2.85-.76-.99-1.89-1.82-3.4-2.5-1.51-.68-3.26-1.02-5.23-1.02-2.89,0-5.18.67-6.86,2.01-1.68,1.34-2.52,2.74-2.52,4.2,0,.99.34,1.95,1.04,2.87.69.92,1.7,1.65,3.03,2.17.88.37,3.38.95,7.48,1.76,4.1.81,7.25,1.69,9.45,2.66,2.2.96,4.03,2.47,5.49,4.53,1.46,2.06,2.19,4.51,2.19,7.34,0,3.96-1.39,7.12-4.18,9.49-3.7,3.12-8.41,4.69-14.14,4.69-2.21,0-4.37-.27-6.46-.8-2.1-.53-4.13-1.33-6.11-2.4Z"/>
    </g>
  </g>
</svg>